<svg xmlns="http://www.w3.org/2000/svg" width="25" height="25"><path fill="#4D4D4D" d="M12.5 5C11.119 5 10 3.878 10 2.5S11.119 0 12.5 0h10C23.881 0 25 1.122 25 2.5S23.881 5 22.5 5h-10m10 5h-10c-1.381 0-2.5 1.122-2.5 2.5s1.119 2.5 2.5 2.5h10c1.381 0 2.5-1.122 2.5-2.5S23.881 10 22.5 10m0 10h-10c-1.381 0-2.5 1.122-2.5 2.5s1.119 2.5 2.5 2.5h10c1.381 0 2.5-1.122 2.5-2.5S23.881 20 22.5 20M2.5 0A2.497 2.497 0 0 0 0 2.496c0 1.378 1.119 2.496 2.5 2.496S5 3.874 5 2.496A2.497 2.497 0 0 0 2.5 0m0 9.983A2.497 2.497 0 0 0 0 12.479c0 1.378 1.119 2.496 2.5 2.496S5 13.857 5 12.479 3.881 9.983 2.5 9.983m0 9.984A2.497 2.497 0 0 0 0 22.463c0 1.378 1.119 2.496 2.5 2.496S5 23.841 5 22.463a2.497 2.497 0 0 0-2.5-2.496"/></svg>